<?xml version="1.0" encoding="UTF-8"?>
<svg width="1024px" height="1024px" viewBox="0 0 1024 1024" version="1.1" xmlns="http://www.w3.org/2000/svg" xmlns:xlink="http://www.w3.org/1999/xlink">
    <title>icon-work-sandbox</title>
    <defs>
        <rect id="path-1" x="0" y="0" width="1024" height="1024" rx="120"></rect>
    </defs>
    <g id="icon-work-sandbox" stroke="none" fill="none">
        <mask id="mask-2" fill="white">
            <use xlink:href="#path-1"></use>
        </mask>
        <use id="Rectangle" fill="#D8D8D8" fill-rule="evenodd" xlink:href="#path-1"></use>
        <g id="Default_Blue" mask="url(#mask-2)" fill-rule="evenodd" stroke-width="1">
            <g id="Group">
                <rect id="Rectangle" fill="#FFFFFF" fill-rule="nonzero" x="0" y="0" width="1024" height="1024"></rect>
                <path d="M511.914,122 C343.222,122 206,259.262 206,428 C206,494.91 227.666,557.006 264.294,607.404 L226.12,721.1 L343.738,683.43 C392.06,715.424 449.838,734 512.086,734 C680.778,734 818,596.738 818,428 C818,259.262 680.606,122 511.914,122 Z" id="Path" fill="#41AFE0"></path>
                <path d="M618.38,542 C618.38,550.734 609.742,542 602,542 L499.086,479.268 C493.502,472.294 493.502,472.294 485.06,463.448 L430.44,421.67 C424.978,415.772 420.952,412.332 414.358,406.53 C379.912,376.224 368.27,347.148 368.27,312.246 C368.27,287.828 384.4,265.114 393.47,258 C336.946,295.286 288.284,350.218 209.18,384.612 C207.094,398.958 206,413.618 206,428.544 C206,491.206 225.02,549.47 257.634,597.936 L225.862,720.01 L344.536,682.656 C382.772,713.13 464.702,735.738 513.634,733.894 C591.084,733.894 661.918,702.894 716,656 C709.964,589.594 669.48,545.492 618.38,513.24 L618.38,542 Z" id="Path" fill="#002E63" fill-rule="nonzero"></path>
                <path d="M512.122,122 C358.436,122 231.296,234.98 210,382 C288.49,347.792 336.788,294.208 392.878,257.124 C401.35,251.534 421.236,241.41 449.842,235.252 C514.99,221.238 583.774,254.754 688.636,305.862 C730.8,326.412 770.384,340.144 808,350.644 C774.41,219.224 654.684,122 512.122,122 Z" id="Path" fill="#6DD7FF" fill-rule="nonzero"></path>
                <path d="M604.346,408.444 L601.58,408.444 L601.58,367.568 C601.58,319.336 561.828,280 513.086,280 C464.346,280 424.592,319.336 424.592,367.568 L424.592,408.444 L421.828,408.444 C406.444,408.444 394,420.758 394,435.98 L394,546.464 C394,561.686 406.444,574 421.828,574 L604.172,574 C619.556,574 632,561.686 632,546.464 L632,435.98 C632,420.758 619.556,408.444 604.172,408.444 L604.346,408.444 Z M461.062,367.568 C461.062,339.006 484.568,315.916 513.26,315.916 C541.95,315.916 565.456,339.176 565.456,367.568 L565.456,408.444 L461.062,408.444 L461.062,367.568 Z" id="Shape" fill="#FFFFFF" fill-rule="nonzero"></path>
                <path d="M348,894 C375.614,894 398,871.614 398,844 C398,816.386 375.614,794 348,794 C320.386,794 298,816.386 298,844 C298,871.614 320.386,894 348,894 Z" id="Path" fill="#002E63" fill-rule="nonzero"></path>
                <path d="M512,894 C539.614,894 562,871.614 562,844 C562,816.386 539.614,794 512,794 C484.386,794 462,816.386 462,844 C462,871.614 484.386,894 512,894 Z" id="Path" fill="#002E63" fill-rule="nonzero"></path>
                <path d="M676,894 C703.614,894 726,871.614 726,844 C726,816.386 703.614,794 676,794 C648.386,794 626,816.386 626,844 C626,871.614 648.386,894 676,894 Z" id="Path" fill="#002E63" fill-rule="nonzero"></path>
            </g>
        </g>
    </g>
</svg>