<?xml version="1.0" encoding="UTF-8"?>
<svg width="1024px" height="1024px" viewBox="0 0 1024 1024" version="1.1" xmlns="http://www.w3.org/2000/svg" xmlns:xlink="http://www.w3.org/1999/xlink">
    <title>icon-consumer-sandbox</title>
    <defs>
        <rect id="path-1" x="0" y="0" width="1024" height="1024" rx="120"></rect>
    </defs>
    <g id="icon-consumer-sandbox" stroke="none" fill="none">
        <mask id="mask-2" fill="white">
            <use xlink:href="#path-1"></use>
        </mask>
        <use id="Rectangle" fill="#D8D8D8" fill-rule="evenodd" xlink:href="#path-1"></use>
        <g id="Default_Green" mask="url(#mask-2)" fill-rule="evenodd" stroke-width="1">
            <g id="Group">
                <rect id="Rectangle" fill="#FFFFFF" fill-rule="nonzero" x="0" y="0" width="1024" height="1024"></rect>
                <path d="M511.914,118 C343.222,118 206,255.262 206,424 C206,490.91 227.666,553.006 264.294,603.404 L226.12,717.1 L343.738,679.43 C392.06,711.424 449.838,730 512.086,730 C680.778,730 818,592.738 818,424 C818,255.262 680.606,118 511.914,118 Z" id="Path" fill="#36D588"></path>
                <path d="M610,535 C610,543.734 600.652,531 593,531 L497.638,475.268 C492.12,468.294 492.12,468.294 483.778,459.448 L429.8,417.67 C424.402,411.772 420.422,408.332 413.908,402.53 C379.866,372.224 368.36,343.148 368.36,308.246 C368.36,283.828 384.302,261.114 393.264,254 C337.404,291.286 289.316,346.218 211.142,380.612 C209.082,394.958 208,409.618 208,424.544 C208,487.206 226.796,545.47 259.026,593.936 L227.628,716.01 L344.908,678.656 C382.692,709.13 463.658,731.738 512.014,729.894 C588.554,729.894 658.554,701.426 712,654.532 C706.034,588.124 666.026,541.492 615.528,509.24 L610,535 Z" id="Path" fill="#0E9061" fill-rule="nonzero"></path>
                <path d="M512.122,118 C358.436,118 231.296,231.848 210,380 C288.49,345.528 336.788,291.532 392.878,254.164 C401.35,248.53 421.236,238.328 449.842,232.124 C514.99,218 583.774,251.774 688.636,303.276 C730.8,323.984 770.384,337.822 808,348.404 C774.41,215.972 654.684,118 512.122,118 Z" id="Path" fill="#5FEAA3" fill-rule="nonzero"></path>
                <path d="M602.81,404.444 L600.092,404.444 L600.092,363.568 C600.092,315.336 561.006,276 513.084,276 C465.164,276 426.078,315.336 426.078,363.568 L426.078,404.444 L423.36,404.444 C408.236,404.444 396,416.758 396,431.98 L396,542.464 C396,557.686 408.236,570 423.36,570 L602.64,570 C617.764,570 630,557.686 630,542.464 L630,431.98 C630,416.758 617.764,404.444 602.64,404.444 L602.81,404.444 Z M461.934,363.568 C461.934,335.006 485.046,311.916 513.254,311.916 C541.464,311.916 564.576,335.176 564.576,363.568 L564.576,404.444 L461.934,404.444 L461.934,363.568 Z" id="Shape" fill="#FFFFFF" fill-rule="nonzero"></path>
                <path d="M348,894 C375.614,894 398,871.614 398,844 C398,816.386 375.614,794 348,794 C320.386,794 298,816.386 298,844 C298,871.614 320.386,894 348,894 Z" id="Path" fill="#0E9061" fill-rule="nonzero"></path>
                <path d="M512,894 C539.614,894 562,871.614 562,844 C562,816.386 539.614,794 512,794 C484.386,794 462,816.386 462,844 C462,871.614 484.386,894 512,894 Z" id="Path" fill="#0E9061" fill-rule="nonzero"></path>
                <path d="M676,894 C703.614,894 726,871.614 726,844 C726,816.386 703.614,794 676,794 C648.386,794 626,816.386 626,844 C626,871.614 648.386,894 676,894 Z" id="Path" fill="#0E9061" fill-rule="nonzero"></path>
            </g>
        </g>
    </g>
</svg>