<?xml version="1.0" encoding="UTF-8"?>
<svg width="1024px" height="1024px" viewBox="0 0 1024 1024" version="1.1" xmlns="http://www.w3.org/2000/svg" xmlns:xlink="http://www.w3.org/1999/xlink">
    <title>icon-consumer-live</title>
    <defs>
        <rect id="path-1" x="0" y="0" width="1024" height="1024" rx="120"></rect>
    </defs>
    <g id="icon-consumer-live" stroke="none" stroke-width="1" fill="none" fill-rule="evenodd">
        <mask id="mask-2" fill="white">
            <use xlink:href="#path-1"></use>
        </mask>
        <use id="Rectangle" fill="#D8D8D8" xlink:href="#path-1"></use>
        <g id="Default_Private" mask="url(#mask-2)">
            <rect id="Rectangle" fill="#000000" fill-rule="nonzero" x="0" y="0" width="1024" height="1024"></rect>
            <path d="M511.914,118 C343.222,118 206,255.262 206,424 C206,490.91 227.666,553.006 264.294,603.404 L226.12,717.1 L343.738,679.43 C392.06,711.424 449.838,730 512.086,730 C680.778,730 818,592.738 818,424 C818,255.262 680.606,118 511.914,118 Z" id="Path" fill="#FFFFFF"></path>
            <path d="M602.81,404.444 L600.092,404.444 L600.092,363.568 C600.092,315.336 561.006,276 513.084,276 C465.164,276 426.078,315.336 426.078,363.568 L426.078,404.444 L423.36,404.444 C408.236,404.444 396,416.758 396,431.98 L396,542.464 C396,557.686 408.236,570 423.36,570 L602.64,570 C617.764,570 630,557.686 630,542.464 L630,431.98 C630,416.758 617.764,404.444 602.64,404.444 L602.81,404.444 Z M461.934,363.568 C461.934,335.006 485.046,311.916 513.254,311.916 C541.464,311.916 564.576,335.176 564.576,363.568 L564.576,404.444 L461.934,404.444 L461.934,363.568 Z" id="Shape" fill="#000000" fill-rule="nonzero"></path>
            <path d="M348,894 C375.614,894 398,871.614 398,844 C398,816.386 375.614,794 348,794 C320.386,794 298,816.386 298,844 C298,871.614 320.386,894 348,894 Z" id="Path" fill="#40E692" fill-rule="nonzero"></path>
            <path d="M512,894 C539.614,894 562,871.614 562,844 C562,816.386 539.614,794 512,794 C484.386,794 462,816.386 462,844 C462,871.614 484.386,894 512,894 Z" id="Path" fill="#40E692" fill-rule="nonzero"></path>
            <path d="M676,894 C703.614,894 726,871.614 726,844 C726,816.386 703.614,794 676,794 C648.386,794 626,816.386 626,844 C626,871.614 648.386,894 676,894 Z" id="Path" fill="#40E692" fill-rule="nonzero"></path>
        </g>
    </g>
</svg>