<?xml version="1.0" encoding="UTF-8"?>
<svg width="1024px" height="1024px" viewBox="0 0 1024 1024" version="1.1" xmlns="http://www.w3.org/2000/svg" xmlns:xlink="http://www.w3.org/1999/xlink">
    <title>icon-consumer-sandbox</title>
    <defs>
        <rect id="path-1" x="0" y="0" width="1024" height="1024" rx="120"></rect>
        <path d="M305.914,0 C137.222,0 0,137.262 0,306 C0,372.91 21.666,435.006 58.294,485.404 L20.12,599.1 L137.738,561.43 C186.06,593.424 243.838,612 306.086,612 C474.778,612 612,474.738 612,306 C612,137.262 474.606,0 305.914,0 Z" id="path-3"></path>
        <filter x="-0.2%" y="-0.2%" width="100.3%" height="100.3%" filterUnits="objectBoundingBox" id="filter-5">
            <feGaussianBlur stdDeviation="0.5" in="SourceAlpha" result="shadowBlurInner1"></feGaussianBlur>
            <feOffset dx="0" dy="1" in="shadowBlurInner1" result="shadowOffsetInner1"></feOffset>
            <feComposite in="shadowOffsetInner1" in2="SourceAlpha" operator="arithmetic" k2="-1" k3="1" result="shadowInnerInner1"></feComposite>
            <feColorMatrix values="0 0 0 0 0.0549019608   0 0 0 0 0.564705882   0 0 0 0 0.380392157  0 0 0 0.495656687 0" type="matrix" in="shadowInnerInner1"></feColorMatrix>
        </filter>
        <linearGradient x1="50%" y1="16.3585587%" x2="18.9881641%" y2="79.4850025%" id="linearGradient-6">
            <stop stop-color="#08402C" offset="0%"></stop>
            <stop stop-color="#0E9061" offset="100%"></stop>
        </linearGradient>
        <path d="M306,110 C446.941125,110 531.885321,296.74774 611.838061,296.001768 L611.958888,300.947409 L611.999,305.88 L611.999977,306.120236 C611.935461,473.115969 477.4688,609.252262 311.137213,611.958927 L306.206,611.999 L305.774964,611.999845 C244.267867,611.938695 187.135199,593.740816 139.190492,562.385789 L137.738,561.43 C171.522309,551.546891 251.835248,512.911889 272.875676,452 C293.916103,391.088111 318.949543,346.99845 266.426381,323.759744 C169.289383,280.781788 164.963715,110 306,110 Z" id="path-7"></path>
        <filter x="-0.2%" y="-0.2%" width="100.4%" height="100.4%" filterUnits="objectBoundingBox" id="filter-9">
            <feOffset dx="0" dy="-1" in="SourceAlpha" result="shadowOffsetInner1"></feOffset>
            <feComposite in="shadowOffsetInner1" in2="SourceAlpha" operator="arithmetic" k2="-1" k3="1" result="shadowInnerInner1"></feComposite>
            <feColorMatrix values="0 0 0 0 1   0 0 0 0 1   0 0 0 0 1  0 0 0 0.498688811 0" type="matrix" in="shadowInnerInner1" result="shadowMatrixInner1"></feColorMatrix>
            <feOffset dx="0" dy="2" in="SourceAlpha" result="shadowOffsetInner2"></feOffset>
            <feComposite in="shadowOffsetInner2" in2="SourceAlpha" operator="arithmetic" k2="-1" k3="1" result="shadowInnerInner2"></feComposite>
            <feColorMatrix values="0 0 0 0 0.0352941176   0 0 0 0 0.305882353   0 0 0 0 0.207843137  0 0 0 0.354157561 0" type="matrix" in="shadowInnerInner2" result="shadowMatrixInner2"></feColorMatrix>
            <feMerge>
                <feMergeNode in="shadowMatrixInner1"></feMergeNode>
                <feMergeNode in="shadowMatrixInner2"></feMergeNode>
            </feMerge>
        </filter>
        <path d="M602.81,404.444 L600.092,404.444 L600.092,363.568 C600.092,315.336 561.006,276 513.084,276 C465.164,276 426.078,315.336 426.078,363.568 L426.078,404.444 L423.36,404.444 C408.236,404.444 396,416.758 396,431.98 L396,542.464 C396,557.686 408.236,570 423.36,570 L602.64,570 C617.764,570 630,557.686 630,542.464 L630,431.98 C630,416.758 617.764,404.444 602.64,404.444 L602.81,404.444 Z M461.934,363.568 C461.934,335.006 485.046,311.916 513.254,311.916 C541.464,311.916 564.576,335.176 564.576,363.568 L564.576,404.444 L461.934,404.444 L461.934,363.568 Z" id="path-10"></path>
        <filter x="-65.2%" y="-50.2%" width="230.3%" height="203.7%" filterUnits="objectBoundingBox" id="filter-11">
            <feOffset dx="0" dy="5" in="SourceAlpha" result="shadowOffsetOuter1"></feOffset>
            <feGaussianBlur stdDeviation="50" in="shadowOffsetOuter1" result="shadowBlurOuter1"></feGaussianBlur>
            <feColorMatrix values="0 0 0 0 0.0431372549   0 0 0 0 0.360784314   0 0 0 0 0.247058824  0 0 0 0.196569056 0" type="matrix" in="shadowBlurOuter1" result="shadowMatrixOuter1"></feColorMatrix>
            <feOffset dx="0" dy="2" in="SourceAlpha" result="shadowOffsetOuter2"></feOffset>
            <feGaussianBlur stdDeviation="5" in="shadowOffsetOuter2" result="shadowBlurOuter2"></feGaussianBlur>
            <feColorMatrix values="0 0 0 0 0.0352941176   0 0 0 0 0.337254902   0 0 0 0 0.231372549  0 0 0 0.20121285 0" type="matrix" in="shadowBlurOuter2" result="shadowMatrixOuter2"></feColorMatrix>
            <feMerge>
                <feMergeNode in="shadowMatrixOuter1"></feMergeNode>
                <feMergeNode in="shadowMatrixOuter2"></feMergeNode>
            </feMerge>
        </filter>
        <filter x="-42.9%" y="-32.5%" width="185.9%" height="168.4%" filterUnits="objectBoundingBox" id="filter-12">
            <feOffset dx="0" dy="-1" in="SourceAlpha" result="shadowOffsetInner1"></feOffset>
            <feComposite in="shadowOffsetInner1" in2="SourceAlpha" operator="arithmetic" k2="-1" k3="1" result="shadowInnerInner1"></feComposite>
            <feColorMatrix values="0 0 0 0 0.0431372549   0 0 0 0 0.415686275   0 0 0 0 0.282352941  0 0 0 0.704682037 0" type="matrix" in="shadowInnerInner1"></feColorMatrix>
        </filter>
    </defs>
    <g id="icon-consumer-sandbox" stroke="none" stroke-width="1" fill="none" fill-rule="evenodd">
        <mask id="mask-2" fill="white">
            <use xlink:href="#path-1"></use>
        </mask>
        <use id="Rectangle" fill="#D8D8D8" xlink:href="#path-1"></use>
        <g id="Default_Green" mask="url(#mask-2)">
            <rect id="Rectangle" fill="#FFFFFF" fill-rule="nonzero" x="0" y="0" width="1024" height="1024"></rect>
            <g id="Path-3-+-Path-2-Mask" transform="translate(206, 118)">
                <mask id="mask-4" fill="white">
                    <use xlink:href="#path-3"></use>
                </mask>
                <g id="Mask">
                    <use fill="#BBEAD2" fill-rule="evenodd" xlink:href="#path-3"></use>
                    <use fill="black" fill-opacity="1" filter="url(#filter-5)" xlink:href="#path-3"></use>
                </g>
                <path d="M306,110 C180.794335,110 80,296 0,296 L0,612 L612,612 L612,306 L306,305 L306,110 Z" id="Path-3" fill="url(#linearGradient-6)" mask="url(#mask-4)"></path>
                <mask id="mask-8" fill="white">
                    <use xlink:href="#path-7"></use>
                </mask>
                <g id="Combined-Shape">
                    <use fill="#36D588" fill-rule="evenodd" xlink:href="#path-7"></use>
                    <use fill="black" fill-opacity="1" filter="url(#filter-9)" xlink:href="#path-7"></use>
                </g>
            </g>
            <g id="Shape" fill-rule="nonzero">
                <use fill="black" fill-opacity="1" filter="url(#filter-11)" xlink:href="#path-10"></use>
                <use fill="#FFFFFF" xlink:href="#path-10"></use>
                <use fill="black" fill-opacity="1" filter="url(#filter-12)" xlink:href="#path-10"></use>
            </g>
            <path d="M348,894 C375.614,894 398,871.614 398,844 C398,816.386 375.614,794 348,794 C320.386,794 298,816.386 298,844 C298,871.614 320.386,894 348,894 Z" id="Path" fill="#0E9061" fill-rule="nonzero"></path>
            <path d="M512,894 C539.614,894 562,871.614 562,844 C562,816.386 539.614,794 512,794 C484.386,794 462,816.386 462,844 C462,871.614 484.386,894 512,894 Z" id="Path" fill="#0E9061" fill-rule="nonzero"></path>
            <path d="M676,894 C703.614,894 726,871.614 726,844 C726,816.386 703.614,794 676,794 C648.386,794 626,816.386 626,844 C626,871.614 648.386,894 676,894 Z" id="Path" fill="#0E9061" fill-rule="nonzero"></path>
        </g>
    </g>
</svg>